# xmcd
#
# Track frame offsets: 
#        150
#        28102
#        44590
#        59776
#        81122
#        101149
#        120687
#        136021
#        166338
#        187080
#        199079
#        210937
#        228102
#        245879
#        263733
#        282205
#        317087
#
# Disc length: 4403 seconds
#
# Revision: 0
# Processed by: cddbd v1.5.2PL0 Copyright (c) Steve Scherf et al.
# Submitted via: ExactAudioCopy v0.99pb3
#
DISCID=f9113111
DTITLE=Various Artist - Best of Blues in Town
DYEAR=2007
DGENRE=Blues
TTITLE0=Boogie Connection - Midnight Special
TTITLE1=Dust and Diesel Bluesband - No time To Wait
TTITLE2=Bluebyrds - Southern Magic Train
TTITLE3=Jean Caroll - I'm A Woman
TTITLE4=Making Blues - Mississippi Kid
TTITLE5=Lars Vegas and Lovegloves
TTITLE6=Riverside Bluesband - Crazy
TTITLE7=Last Fair Deal - Driftin and Driftin
TTITLE8=Tin Pan Alley - I Just Wanna Make Love To You
TTITLE9=Low Budget - Great Balls Of Fire
TTITLE10=Low Budget - C'mon Everybody
TTITLE11=Sweet Mama - Big Road Blues
TTITLE12=Orta Krause Maas - Rolling And Smoking
TTITLE13=Netzer Scheytt - Elmores Grave
TTITLE14=Blueskraft - Chicago Bound
TTITLE15=Call 66 - I Make Love To You
TTITLE16=Ch. Dozzler - Walking To New Orleans
EXTD=
EXTT0=
EXTT1=
EXTT2=
EXTT3=
EXTT4=
EXTT5=
EXTT6=
EXTT7=
EXTT8=
EXTT9=
EXTT10=
EXTT11=
EXTT12=
EXTT13=
EXTT14=
EXTT15=
EXTT16=
PLAYORDER=
